<?xml version="1.0" encoding="UTF-8" standalone="no"?>
<!-- Created with Inkscape (http://www.inkscape.org/) -->

<svg
   version="1.1"
   id="svg1"
   width="499"
   height="637"
   viewBox="0 0 499 637"
   xmlns="http://www.w3.org/2000/svg">
  <defs
     id="defs1" />
  <g
     id="g1">
    <path
       style="fill:#53ac53;fill-opacity:0.766839;stroke-width:0.990874"
       id="rect1"
       width="376.58456"
       height="525.74799"
       x="65.198555"
       y="61.232475"
       d="M 77.617005,61.232475 H 429.29137 a 12.491753,12.491753 45 0 1 12.49175,12.491753 V 573.39919 a 13.581268,13.581268 135 0 1 -13.58127,13.58127 H 77.617045 A 12.41849,12.41849 45 0 1 65.198555,574.56197 V 73.650925 a 12.41845,12.41845 135 0 1 12.41845,-12.41845 z" />
    <path
       style="fill:#000000;fill-opacity:1"
       d="m 117.103,493.30875 41.58787,-0.2736 v -49.5224 l 81.53412,-140.08546 57.45692,99.86561 -57.45693,-0.2736 v 44.32391 l 82.35493,-0.54721 27.36044,46.78636 48.70158,-0.27361 -131.33011,-225.45004 c 0,0 -3.34446,-7.31168 0.27361,-12.8594 4.10406,-6.29291 59.37215,-100.68642 59.37215,-100.68642 H 277.98239 L 158.96447,360.61061 V 154.31289 H 117.103 Z"
       id="path1" />
  </g>
</svg>
